<?xml version="1.0" standalone="no"?>
<!DOCTYPE svg PUBLIC "-//W3C//DTD SVG 20010904//EN"
 "http://www.w3.org/TR/2001/REC-SVG-20010904/DTD/svg10.dtd">
<svg version="1.0" xmlns="http://www.w3.org/2000/svg"
 width="64.000000pt" height="64.000000pt" viewBox="0 0 64.000000 64.000000"
 preserveAspectRatio="xMidYMid meet">

<g transform="translate(0.000000,64.000000) scale(0.100000,-0.100000)"
fill="#000000" stroke="none">
<path d="M90 530 c-18 -18 -20 -33 -20 -195 0 -234 -22 -215 250 -215 269 0
250 -15 250 190 0 196 5 190 -158 190 -113 0 -120 1 -142 25 -21 22 -32 25
-92 25 -55 0 -72 -4 -88 -20z m95 -20 c0 -9 -11 -16 -27 -18 -19 -2 -28 -10
-30 -25 -4 -29 -32 -29 -36 0 -4 31 33 65 66 61 16 -2 27 -9 27 -18z m175
-107 c-1 -33 -56 -197 -68 -201 -7 -2 -12 5 -12 15 0 14 32 127 55 191 7 18
25 15 25 -5z m-90 -46 c0 -7 -15 -20 -32 -29 l-33 -16 32 -18 c30 -18 45 -44
24 -44 -14 0 -101 51 -101 60 0 10 80 59 98 60 6 0 12 -6 12 -13z m166 -13
c24 -14 44 -30 44 -34 0 -9 -87 -60 -101 -60 -21 0 -6 26 24 44 l32 18 -32 16
c-18 9 -33 22 -33 29 0 19 16 16 66 -13z"/>
</g>
</svg>
